<svg xmlns="http://www.w3.org/2000/svg">
	<symbol id="cart" width="20" height="20" viewBox="0 0 22 22">
		<path d="M4.19312 5.44446H18.8712C19.1686 5.44447 19.4627 5.50954 19.7346 5.63546C20.0064 5.76139 20.25 5.94539 20.4495 6.17558C20.6491 6.40578 20.8002 6.67708 20.8932 6.97199C20.9862 7.26689 21.0189 7.57887 20.9894 7.88779L20.3507 14.5545C20.2982 15.1028 20.0524 15.6112 19.6609 15.981C19.2695 16.3508 18.7605 16.5555 18.2326 16.5556H8.06753C7.57522 16.5558 7.09805 16.3778 6.71728 16.0521C6.33651 15.7263 6.07567 15.2729 5.97918 14.7689L4.19312 5.44446Z" stroke-width="2" stroke-linejoin="round"/>
		<path d="M4.1932 5.44444L3.33104 1.84111C3.27338 1.60084 3.14046 1.38757 2.9534 1.23517C2.76633 1.08278 2.53585 1.00001 2.29857 1H1M7.3864 21H9.5152M15.9016 21H18.0304" stroke-width="2" stroke-linecap="round" stroke-linejoin="round"/>
	</symbol>

	<symbol id="plus" viewBox="0 0 11 11">
		<path d="M5.5 10V5.5M5.5 5.5V1M5.5 5.5H10M5.5 5.5H1" stroke-width="2" stroke-linecap="round"/>
	</symbol>

	<symbol id="heart" viewBox="0 0 22 20">
		<path d="M6 1C3.239 1 1 3.23669 1 5.99621C1 8.22381 1.875 13.5107 10.488 18.8551C10.6423 18.9499 10.8194 19 11 19C11.1806 19 11.3577 18.9499 11.512 18.8551C20.125 13.5107 21 8.22381 21 5.99621C21 3.23669 18.761 1 16 1C13.239 1 11 4.028 11 4.028C11 4.028 8.761 1 6 1Z" stroke-width="2" stroke-linecap="round" stroke-linejoin="round"/>
	</symbol>

	<symbol id="search" viewBox="0 0 17 17">
		<path d="M16 16L12.4584 12.4521M14.4211 7.71053C14.4211 9.49027 13.7141 11.1971 12.4556 12.4556C11.1971 13.7141 9.49027 14.4211 7.71053 14.4211C5.93078 14.4211 4.22394 13.7141 2.96547 12.4556C1.707 11.1971 1 9.49027 1 7.71053C1 5.93078 1.707 4.22394 2.96547 2.96547C4.22394 1.707 5.93078 1 7.71053 1C9.49027 1 11.1971 1.707 12.4556 2.96547C13.7141 4.22394 14.4211 5.93078 14.4211 7.71053V7.71053Z" stroke-width="2" stroke-linecap="round"/>
	</symbol>
</svg>
